<?xml version="1.0" encoding="UTF-8" standalone="no"?><svg xmlns="http://www.w3.org/2000/svg" width="320" height="108.695"><path d="M2252.277 767.516h320v108.695h-320z" style="fill:#fff;fill-opacity:1;stroke-width:.629708;stroke-linecap:round" transform="translate(-2252.277 -767.516)"/><path d="M2460.391 864.475c-2.64-.044-7.544-.206-8.71-.288-.68-.048-2.43-.168-3.89-.267-6.946-.47-9.854-.745-15.782-1.497-4.343-.55-6.632-.892-10.698-1.596-6.948-1.203-7.525-1.315-14.312-2.787-5.454-1.182-7.966-1.78-8.118-1.931-.04-.032 0-.13.092-.214.244-.243 1.1-.173 3.506.286 4.457.852 16.162 2.606 20.954 3.14 5.919.66 8.51.916 14.28 1.411 7.362.632 6.855.598 11.417.76 6.349.226 15.645.164 20.633-.138 4.04-.244 10.174-1.237 14.5-2.348 5.636-1.447 10.043-3.408 15.048-6.694 3.476-2.283 4.71-3.227 6.393-4.893 2.012-1.992 3.64-3.977 5.322-6.486.859-1.281 2.27-3.68 2.821-4.797l.34-.685h3.933l-.268.597c-1.098 2.452-3.62 6.653-5.428 9.04-2.735 3.612-6.013 6.805-9.505 9.26-5.6 3.938-12.492 6.747-20.556 8.378-3.548.717-4.593.852-10.345 1.337-3.797.32-8.06.472-11.627.413zm-100.96-11.067c-.136-.087-.108-.155.292-.661.4-.505 1.537-1.233 4.048-2.59 3.344-1.809 7.396-3.762 9.176-4.424 3.56-1.323 9.24-3.088 11.338-3.521 1.476-.306 6.262-1.147 8.07-1.419 8.32-1.251 15.7-1.386 26.126-.475 4.294.374 13.02 1.414 16.666 1.985 1.994.312 4.401.67 5.35.797 1.862.248 5.849.866 6.852 1.06.34.067 1.692.343 3.006.615 13.102 2.714 19.472 3.632 25.905 3.734 3.349.053 5.355-.067 7.78-.465 7.47-1.226 13.124-4.67 17.635-10.74.426-.573.89-1.224 1.03-1.447l.256-.406h2.056c1.13 0 2.056.032 2.056.07 0 .11-1.312 2.174-1.944 3.062-1.977 2.774-4.61 5.548-6.942 7.312-3.254 2.462-7.007 4.202-11.116 5.153-3.007.697-5.118.932-8.934.998-3.262.057-4.945-.02-8.42-.376-5.584-.574-11.24-1.577-24.844-4.408-5.037-1.047-9.962-1.97-14.147-2.652-4.313-.702-5.264-.836-9.46-1.334-5.903-.7-12.943-1.03-18.125-.848-3.553.124-8.021.453-9.726.715a49.12 49.12 0 0 1-1.326.176c-2.545.304-7.388 1.245-10.654 2.07-4.86 1.228-10.333 3.135-15.12 5.268-.462.206-1.854.805-3.094 1.33-1.24.525-2.513 1.078-2.83 1.228-.604.287-.762.319-.961.193zm68.158-1.07c-4.348-.121-9.383-.339-14.404-.622-2.442-.138-9.758-.608-10.883-.7-.559-.046-1.415-.108-1.901-.138a267.35 267.35 0 0 1-2.52-.18c-.9-.07-2.192-.168-2.873-.216-.681-.05-1.775-.13-2.431-.18-.657-.05-1.712-.128-2.344-.174l-2.343-.176a606.24 606.24 0 0 0-3.05-.22 577.47 577.47 0 0 1-3.072-.221c-2.131-.163-4.92-.354-6.72-.46-.96-.058-1.746-.129-1.746-.159 0-.028.408-.186.906-.347.499-.162 1.855-.632 3.015-1.045l2.108-.751 5.54.321a8985.541 8985.541 0 0 0 30.65 1.728c7.409.407 13.107.622 16.533.622 2.375.001 8.959-.23 11.538-.403 4.24-.286 3.385-.347 8.001.575 4.38.876 6.518 1.32 6.564 1.366.052.054-3.282.468-5.414.673-2.181.21-5.639.452-8.223.577-3.27.157-13.243.234-16.931.13zm-135.956-.5c-.188-.486.988-.861 8.417-2.686 3.675-.902 5.82-1.373 9.858-2.163 1.754-.344 9.97-1.433 11.715-1.554 1.18-.081 5.121-.273 9.195-.446 2.642-.113 12.71-.05 15.694.097 1.045.052 3.572.133 5.615.18 3.565.083 17.644.86 17.765.98.04.028-.396.263-.944.52-.547.258-1.483.748-2.08 1.089l-1.085.62-1.082-.058c-2.5-.132-8.594-.41-10.85-.496-1.338-.05-3.745-.15-5.35-.222-4.75-.213-15.306-.33-19.938-.223-10.202.238-15.816.874-28.469 3.227-6.056 1.126-6.995 1.282-7.753 1.282-.526 0-.663-.028-.708-.147zm180.429-4.249c-.863-.07-7.324-.926-7.781-1.032l-.486-.112.707-.152c4.576-.989 9.125-2.397 12.909-3.996 3.737-1.579 7.897-3.991 10.762-6.24l.77-.606 2.634.004 2.633.004-.848.814c-1.564 1.503-4.002 3.409-6.133 4.794-3.942 2.563-7.648 4.349-12.68 6.11-1.354.474-1.478.494-2.487.413zm-179.53-13.53c.04-.085 1.969-5.566 4.3-12.18 2.332-6.613 4.352-12.263 4.49-12.555.72-1.529 2-2.566 3.799-3.078l.676-.192 13.196-.024c7.316-.012 13.196.008 13.196.05s-.518 1.522-1.15 3.289a305.207 305.207 0 0 0-1.149 3.242c0 .016-4.429.028-9.842.028-6.667 0-10.011.032-10.367.095-.755.138-1.576.569-2.01 1.055-.352.392-.54.895-3.917 10.396l-3.549 9.983-3.867.024c-3.661.02-3.864.016-3.806-.133zm36.126-1.106c.244-.693.77-2.175 1.17-3.293l.728-2.034 8.796-.045c8.394-.043 8.817-.053 9.268-.215.765-.275 1.255-.787 1.647-1.724.184-.44.388-.844.456-.899.18-.15.144-.642-.064-.909-.447-.568 0-.536-8.303-.587-7.02-.043-7.594-.058-8.046-.209-1.516-.505-2.448-1.363-2.79-2.567-.112-.399-.14-.747-.108-1.459.04-.884.08-1.043.726-2.924.376-1.094 1.15-3.366 1.722-5.048.709-2.085 1.129-3.187 1.32-3.464.538-.784 1.343-1.284 2.367-1.474.344-.063 4.46-.094 12.654-.094h12.147l-.064.2c-.04.109-.55 1.59-1.145 3.293l-1.083 3.094-8.83.046c-6.135.032-8.911.075-9.1.143-.513.186-.804.376-1.123.728-.463.513-.565.766-.633 1.566-.072.829 0 1.077.421 1.326.268.163.592.172 7.751.217 6.72.043 7.523.063 7.986.2 1.335.394 2.318 1.146 2.765 2.115.236.512.256.635.256 1.572 0 .73-.048 1.166-.164 1.547-.292.957-3.52 9.537-3.789 10.072-.56 1.114-1.486 1.791-2.721 1.991-.38.062-4.62.093-12.62.094h-12.044zm30.055 1.234c0-.04 1.988-5.717 2.181-6.23l.14-.375h8.321c5.182-.001 8.538-.037 8.896-.091.796-.124 1.76-.61 2.2-1.111.264-.3.427-.623.637-1.258l.32-.96c.04-.078-1.766-.113-7.462-.142-8.11-.042-8.161-.045-9.583-.54-2.109-.733-2.907-2.404-2.306-4.828.104-.413 1.112-3.427 2.243-6.696l2.058-5.945 3.873-.001c2.13 0 3.855.028 3.833.065-.128.21-3.362 9.414-3.442 9.796-.132.622.04 1.082.468 1.3.284.142.758.154 6.054.154h5.747l.453-.212c.248-.116.554-.344.677-.507.128-.168.59-1.33 1.067-2.684 1.22-3.466 2.793-7.85 2.829-7.885 0-.016 1.743-.02 3.836-.008l3.805.024-4.347 12.335c-2.583 7.328-4.47 12.55-4.648 12.865-.164.291-.6.831-.969 1.2-.756.758-1.517 1.185-2.703 1.516l-.707.197-11.737.028c-6.456.016-11.737.012-11.737-.004zm33.068-.051c0-.072 2.008-5.774 2.222-6.308l.096-.24 8.765-.029c9.742-.028 9.247.001 10.055-.622.388-.3.476-.439 1.05-1.673.388-.835.436-1.159.212-1.476-.356-.508-.116-.492-8.3-.54l-7.514-.045-.685-.233c-1.262-.43-2.183-1.219-2.547-2.18-.256-.673-.316-1.74-.144-2.538.104-.483 2.096-6.463 3.265-9.793.368-1.044 1.073-1.76 2.18-2.207l.496-.2 12.48-.025 12.48-.024-.337.952c-.184.524-.708 2.016-1.162 3.315l-.826 2.362-8.84.024c-10.06.028-9.343-.028-10.131.783-.568.583-.693.893-.721 1.784-.04.818.068 1.028.55 1.248.157.07 2.403.114 7.693.149 8.237.053 7.785.024 9.011.626 1.75.862 2.395 2.708 1.725 4.94-.284.942-3.404 9.247-3.712 9.878-.57 1.165-1.475 1.854-2.7 2.052-.707.115-24.66.13-24.66.016zm33.158.055c0-.012 2.163-6.348 4.804-14.08l4.8-14.058 3.827-.024c3.05-.02 3.819 0 3.785.088-.208.55-7.316 21.325-7.316 21.385 0 .047 3.83.07 9.299.057l9.298-.024.436-1.105c.24-.608 1.747-4.865 3.35-9.46 1.603-4.596 3.01-8.564 3.125-8.819.412-.908 1.516-1.729 2.704-2.009.83-.195 21.904-.203 22.923-.008 2.159.413 3.11 1.892 2.801 4.353-.06.47-.236 1.314-.392 1.878-.296 1.066-6.542 18.804-6.904 19.607-.396.877-1.238 1.594-2.343 1.99l-.575.205-10.83.028c-6.985.016-11.073-.004-11.512-.063-2.179-.288-3.235-1.384-3.283-3.406 0-.362-.04-.63-.068-.597-.04.032-.368.966-.751 2.072l-.7 2.011h-13.24c-7.282 0-13.239-.007-13.237-.02zm49.539-6.785c.49-.18 1.077-.734 1.334-1.264.124-.254 1.1-2.965 2.171-6.026 2.102-6.006 2.142-6.159 1.793-6.858-.324-.645-.096-.624-6.432-.598l-5.659.024-.462.209c-.506.229-1.064.776-1.334 1.307-.192.383-3.972 11.208-4.052 11.613-.144.717.232 1.507.794 1.674.164.05 2.575.075 5.894.063 4.536-.016 5.68-.045 5.953-.144zm19.51 6.478c-1.723-.197-3.046-1.004-3.647-2.224-.272-.55-.288-.636-.288-1.556 0-.574.052-1.157.124-1.417.276-.98 3.575-10.49 5.977-17.241 1.384-3.888 1.665-4.428 2.656-5.1.941-.638.264-.61 14.285-.583l12.523.024-1.165 3.272-1.166 3.27-9.19.045-9.192.044-.502.203c-.812.329-1.142.736-1.658 2.046-1.342 3.406-3.903 10.874-3.925 11.444 0 .466.172.771.619.993.32.159.6.168 5.157.168 4.293 0 4.871-.016 5.305-.15.556-.174.984-.462 1.284-.87.176-.236 1.014-2.029 1.014-2.165 0-.024-1.972-.042-4.384-.042-2.41 0-4.37-.036-4.354-.076 0-.042.547-1.533 1.179-3.315l1.15-3.238 8.21-.001c7.835-.001 8.209.008 8.17.156-.176.667-4.838 13.645-5.086 14.154-.617 1.264-1.466 1.918-2.763 2.128-.545.089-19.58.117-20.335.032zm-3.583-27.704c-.148-.24.264-2.891.664-4.283.707-2.452 1.906-4.738 3.568-6.808.787-.98 2.53-2.651 3.586-3.437 5.551-4.13 12.58-5.47 19.328-3.682 7.607 2.016 13.513 7.98 15.016 15.165.256 1.216.448 2.962.34 3.07-.04.04-.786.062-1.658.049l-1.585-.024-.064-.772c-.156-1.879-.653-3.568-1.62-5.506-.835-1.676-1.569-2.704-2.935-4.118-2.864-2.962-6.71-4.886-10.855-5.43-1.306-.17-3.721-.172-5.011-.002-6.84.9-12.672 5.482-14.696 11.545-.368 1.1-.636 2.283-.712 3.133-.04.34-.076.748-.1.906l-.044.287h-1.582c-1.018 0-1.603-.032-1.64-.093z" style="fill:#000;stroke-width:.0884152" transform="translate(-2252.277 -767.516)"/></svg>