<?xml version="1.0" encoding="UTF-8" standalone="no"?>
<!-- Created with Inkscape (http://www.inkscape.org/) -->

<svg
   version="1.1"
   id="svg2"
   width="320"
   height="108.69499"
   viewBox="0 0 320 108.69499"
   sodipodi:docname="rsyslog_logo.png"
   inkscape:export-filename="rsyslog_logo.svg"
   inkscape:export-xdpi="96"
   inkscape:export-ydpi="96"
   xmlns:inkscape="http://www.inkscape.org/namespaces/inkscape"
   xmlns:sodipodi="http://sodipodi.sourceforge.net/DTD/sodipodi-0.dtd"
   xmlns="http://www.w3.org/2000/svg"
   xmlns:svg="http://www.w3.org/2000/svg">
  <defs
     id="defs6" />
  <sodipodi:namedview
     id="namedview4"
     pagecolor="#505050"
     bordercolor="#eeeeee"
     borderopacity="1"
     inkscape:showpageshadow="0"
     inkscape:pageopacity="0"
     inkscape:pagecheckerboard="0"
     inkscape:deskcolor="#505050"
     showgrid="false" />
  <g
     inkscape:groupmode="layer"
     inkscape:label="Image"
     id="g8"
     transform="translate(-2252.2766,-767.51569)">
    <rect
       style="fill:#ffffff;fill-opacity:1;stroke-width:0.629708;stroke-linecap:round"
       id="rect224"
       width="320"
       height="108.695"
       x="2252.2766"
       y="767.51569" />
    <path
       style="fill:#000000;stroke-width:0.0884152"
       d="m 2460.391,864.47542 c -2.6404,-0.044 -7.544,-0.2064 -8.7092,-0.2884 -0.6808,-0.048 -2.4312,-0.168 -3.89,-0.2668 -6.9464,-0.46968 -9.8548,-0.74556 -15.7824,-1.49716 -4.3436,-0.5508 -6.6324,-0.89232 -10.698,-1.5962 -6.948,-1.20288 -7.5252,-1.31524 -14.3124,-2.78664 -5.4536,-1.1822 -7.966,-1.78008 -8.1176,-1.93168 -0.04,-0.032 0,-0.13 0.092,-0.2136 0.244,-0.2432 1.0992,-0.1732 3.5056,0.2864 4.4568,0.8516 16.1624,2.60568 20.9544,3.14 5.9184,0.65992 8.5096,0.91596 14.2788,1.41096 7.3624,0.63164 6.8556,0.59792 11.418,0.76016 6.3484,0.2256 15.6452,0.1636 20.6328,-0.138 4.0404,-0.2444 10.174,-1.23776 14.5,-2.34848 5.6356,-1.44696 10.0432,-3.40772 15.048,-6.6944 3.476,-2.28264 4.7096,-3.22656 6.3928,-4.89284 2.0124,-1.99196 3.6408,-3.97668 5.3224,-6.48596 0.8584,-1.28076 2.2696,-3.68012 2.8212,-4.79652 l 0.34,-0.68524 h 1.966 1.9664 l -0.268,0.5968 c -1.098,2.45208 -3.6204,6.65316 -5.4276,9.03952 -2.7356,3.61228 -6.0132,6.80568 -9.5052,9.26092 -5.6008,3.9378 -12.4924,6.7464 -20.5564,8.37728 -3.548,0.71756 -4.5928,0.85268 -10.3448,1.33792 -3.7968,0.3204 -8.0596,0.4714 -11.6264,0.41216 z m -100.9596,-11.06776 c -0.136,-0.0868 -0.108,-0.1544 0.292,-0.66088 0.4,-0.50428 1.5364,-1.23252 4.0472,-2.59024 3.3448,-1.80844 7.3964,-3.76148 9.1764,-4.4232 3.5596,-1.32336 9.2408,-3.08808 11.3384,-3.52184 1.476,-0.3052 6.2612,-1.14632 8.0688,-1.4182 8.3208,-1.25156 15.7004,-1.38596 26.1268,-0.4758 4.294,0.3748 13.0192,1.41412 16.666,1.98508 1.994,0.312 4.4012,0.67104 5.3492,0.79752 1.8628,0.2484 5.8496,0.86544 6.8524,1.06044 0.34,0.0664 1.6928,0.3428 3.006,0.61476 13.1024,2.7136 19.472,3.6316 25.9056,3.7338 3.3488,0.0532 5.3548,-0.0668 7.7804,-0.4648 7.4692,-1.22596 13.1236,-4.66968 17.6344,-10.74012 0.4256,-0.57312 0.8896,-1.22452 1.0304,-1.44756 l 0.256,-0.40548 h 2.0556 c 1.1304,0 2.0556,0.032 2.0556,0.0708 0,0.1084 -1.3112,2.17312 -1.944,3.06124 -1.9764,2.77356 -4.6104,5.54792 -6.9416,7.31184 -3.2536,2.46172 -7.0068,4.20172 -11.1164,5.15332 -3.0064,0.6962 -5.118,0.93212 -8.9332,0.99804 -3.2628,0.0564 -4.9452,-0.02 -8.4204,-0.376 -5.584,-0.57428 -11.24,-1.57776 -24.8444,-4.40788 -5.0364,-1.04764 -9.9616,-1.97112 -14.1468,-2.65252 -4.3132,-0.70224 -5.2636,-0.83628 -9.4604,-1.334 -5.9028,-0.70008 -12.942,-1.0294 -18.1248,-0.84804 -3.5524,0.1244 -8.0208,0.45288 -9.726,0.71512 -0.292,0.0448 -0.8884,0.1244 -1.326,0.1764 -2.5448,0.3036 -7.3872,1.24416 -10.654,2.06964 -4.8604,1.22808 -10.3328,3.13496 -15.1192,5.26832 -0.462,0.206 -1.8544,0.80424 -3.0944,1.32964 -1.24,0.5254 -2.5132,1.07796 -2.8292,1.22792 -0.6052,0.2872 -0.7632,0.3188 -0.962,0.1928 z m 68.1576,-1.06904 c -4.348,-0.122 -9.3828,-0.3396 -14.404,-0.6226 -2.4424,-0.1376 -9.7584,-0.60824 -10.8828,-0.69996 -0.5592,-0.0456 -1.4148,-0.1076 -1.9012,-0.1376 -0.486,-0.032 -1.62,-0.1116 -2.5196,-0.1812 -0.8996,-0.0696 -2.1928,-0.1668 -2.8736,-0.2156 -0.6808,-0.0488 -1.7748,-0.1296 -2.4312,-0.1792 -0.6568,-0.0496 -1.7112,-0.1284 -2.3432,-0.1748 -0.632,-0.0464 -1.6864,-0.1252 -2.3432,-0.1752 -0.6564,-0.05 -2.0288,-0.1488 -3.05,-0.22 -1.0212,-0.0708 -2.4036,-0.1708 -3.072,-0.2216 -2.1316,-0.1624 -4.9208,-0.3536 -6.72,-0.46076 -0.9604,-0.0572 -1.7464,-0.128 -1.7464,-0.1576 0,-0.028 0.408,-0.186 0.9064,-0.3476 0.4984,-0.1616 1.8548,-0.632 3.0144,-1.04508 l 2.108,-0.75104 5.54,0.3216 c 8.1124,0.47108 18.4216,1.05684 23.4436,1.33204 1.3376,0.0732 4.58,0.2512 7.206,0.3956 7.4096,0.40716 13.1076,0.62164 16.5336,0.62236 2.3748,6.8e-4 8.9588,-0.2296 11.538,-0.4034 4.24,-0.2856 3.3856,-0.3468 8.0016,0.57548 4.3804,0.87536 6.5176,1.32008 6.5632,1.36572 0.052,0.0536 -3.2816,0.46824 -5.4136,0.67328 -2.1812,0.2096 -5.6388,0.45204 -8.2228,0.5762 -3.2696,0.1572 -13.2432,0.234 -16.9312,0.1308 z m -135.956,-0.50068 c -0.188,-0.48612 0.988,-0.86092 8.4168,-2.68556 3.6756,-0.90276 5.8208,-1.37356 9.8584,-2.16372 1.7536,-0.3432 9.97,-1.4328 11.7148,-1.55356 1.1796,-0.0816 5.1212,-0.2732 9.1952,-0.44644 2.642,-0.1124 12.71,-0.05 15.694,0.0976 1.0452,0.0516 3.572,0.1328 5.6144,0.1804 3.5652,0.0828 17.6448,0.85932 17.7652,0.9796 0.04,0.028 -0.396,0.2624 -0.9436,0.51988 -0.5476,0.2576 -1.4836,0.7474 -2.0808,1.08848 l -1.0848,0.62008 -1.0812,-0.0572 c -2.5012,-0.1324 -8.5948,-0.41128 -10.8508,-0.49656 -1.3372,-0.0504 -3.7444,-0.1508 -5.3492,-0.2224 -4.7504,-0.2124 -15.306,-0.33 -19.9384,-0.2224 -10.2016,0.2376 -15.8156,0.8738 -28.4688,3.22692 -6.056,1.1262 -6.9956,1.28152 -7.7532,1.28152 -0.5256,0 -0.6628,-0.028 -0.708,-0.1464 z m 180.4288,-4.2488 c -0.8632,-0.0696 -7.3236,-0.92624 -7.7808,-1.03164 l -0.486,-0.112 0.7072,-0.1528 c 4.576,-0.98872 9.1248,-2.39672 12.9088,-3.9956 3.7372,-1.57912 7.8968,-3.99124 10.762,-6.24068 l 0.7708,-0.6054 2.6332,0.004 2.6328,0.004 -0.8476,0.814 c -1.5644,1.50292 -4.0024,3.40852 -6.1332,4.79388 -3.942,2.56308 -7.6484,4.34904 -12.6808,6.11004 -1.3536,0.47368 -1.4772,0.4942 -2.4864,0.41276 z m -179.5296,-13.52992 c 0.04,-0.0856 1.9688,-5.56668 4.3004,-12.18012 2.3316,-6.61348 4.3516,-12.2632 4.4892,-12.55496 0.72,-1.52872 2.0004,-2.56608 3.7992,-3.0778 l 0.676,-0.1924 13.196,-0.024 c 7.316,-0.012 13.196,0.008 13.196,0.0508 0,0.0416 -0.5176,1.52152 -1.1496,3.28828 -0.632,1.76676 -1.1492,3.22556 -1.1492,3.2418 0,0.016 -4.4292,0.028 -9.8424,0.028 -6.6664,0 -10.0112,0.032 -10.3664,0.0956 -0.7556,0.1376 -1.5764,0.56812 -2.0108,1.05452 -0.352,0.3924 -0.5392,0.89504 -3.9164,10.39564 l -3.5488,9.98344 -3.8672,0.024 c -3.6616,0.02 -3.8644,0.016 -3.806,-0.1328 z m 36.1256,-1.10612 c 0.244,-0.69296 0.7704,-2.17504 1.1704,-3.29348 l 0.7276,-2.03356 8.796,-0.0448 c 8.394,-0.0428 8.8176,-0.0528 9.2684,-0.2152 0.7652,-0.2752 1.2544,-0.7874 1.6472,-1.72376 0.184,-0.4394 0.388,-0.84408 0.456,-0.89932 0.18,-0.15 0.144,-0.64188 -0.064,-0.90856 -0.4472,-0.56868 0,-0.53596 -8.3032,-0.58728 -7.0204,-0.0432 -7.5944,-0.058 -8.046,-0.2088 -1.516,-0.50536 -2.4484,-1.36296 -2.7904,-2.5672 -0.112,-0.3988 -0.14,-0.747 -0.108,-1.45884 0.04,-0.88412 0.08,-1.04368 0.726,-2.92448 0.376,-1.09416 1.1508,-3.36556 1.7224,-5.0476 0.7088,-2.0852 1.1284,-3.18756 1.3192,-3.46472 0.5388,-0.7832 1.3432,-1.28384 2.3672,-1.47312 0.344,-0.0632 4.4608,-0.094 12.6548,-0.094 h 12.1468 l -0.064,0.1988 c -0.04,0.1096 -0.55,1.59148 -1.1452,3.29344 l -1.0832,3.09456 -8.8292,0.0456 c -6.1356,0.032 -8.912,0.0756 -9.1,0.1436 -0.5132,0.186 -0.8048,0.3752 -1.1236,0.72804 -0.4628,0.51208 -0.5648,0.7652 -0.6328,1.56568 -0.072,0.82868 0,1.07684 0.4208,1.32628 0.268,0.1624 0.5924,0.1712 7.7512,0.2168 6.7192,0.0428 7.5228,0.0628 7.986,0.1996 1.3344,0.394 2.3176,1.14588 2.7648,2.11516 0.236,0.51172 0.256,0.6354 0.256,1.5722 0,0.7306 -0.048,1.16608 -0.164,1.54724 -0.292,0.9564 -3.5196,9.53616 -3.7888,10.07148 -0.56,1.11376 -1.486,1.79136 -2.7216,1.99132 -0.38,0.0616 -4.6204,0.0932 -12.6188,0.0936 l -12.0444,6.8e-4 z m 30.0556,1.23404 c 0,-0.04 1.9876,-5.71752 2.1808,-6.22952 l 0.14,-0.3756 8.3212,-7.2e-4 c 5.1812,-4.4e-4 8.538,-0.036 8.8956,-0.0904 0.7956,-0.124 1.7592,-0.6108 2.1996,-1.11132 0.264,-0.2988 0.4276,-0.62296 0.6376,-1.25792 0.156,-0.47044 0.3,-0.90212 0.32,-0.95928 0.04,-0.0788 -1.7664,-0.1132 -7.462,-0.1424 -8.1104,-0.0416 -8.1612,-0.0448 -9.5836,-0.5394 -2.1084,-0.73316 -2.9064,-2.40464 -2.306,-4.82848 0.104,-0.41336 1.112,-3.42676 2.2436,-6.69644 l 2.0576,-5.94492 3.8732,-0.001 c 2.1304,-5.2e-4 3.8552,0.028 3.8332,0.0652 -0.128,0.21 -3.362,9.4144 -3.442,9.79624 -0.132,0.62184 0.04,1.082 0.468,1.29976 0.284,0.1424 0.758,0.1544 6.054,0.154 l 5.7472,-7.2e-4 0.4524,-0.2108 c 0.248,-0.116 0.554,-0.3444 0.6776,-0.50752 0.128,-0.1684 0.5896,-1.33068 1.0664,-2.68408 1.2208,-3.4658 2.7936,-7.849 2.8292,-7.88448 0,-0.016 1.7432,-0.02 3.836,-0.008 l 3.8052,0.024 -4.3476,12.33508 c -2.5828,7.32764 -4.4696,12.54996 -4.6476,12.86444 -0.164,0.2912 -0.6008,0.83132 -0.9688,1.20044 -0.756,0.75808 -1.5172,1.18492 -2.7028,1.51564 l -0.7072,0.1972 -11.7372,0.028 c -6.4556,0.016 -11.7372,0.012 -11.7372,-0.004 z m 33.0672,-0.0516 c 0,-0.072 2.0084,-5.77372 2.222,-6.30772 l 0.096,-0.2404 8.7656,-0.028 c 9.7416,-0.028 9.2472,10e-4 10.0552,-0.62276 0.388,-0.3004 0.4756,-0.43868 1.0496,-1.6724 0.388,-0.83528 0.4356,-1.1588 0.212,-1.47584 -0.356,-0.50824 -0.116,-0.49264 -8.2992,-0.5412 l -7.5152,-0.0444 -0.6848,-0.2332 c -1.2616,-0.42968 -2.1832,-1.21848 -2.5472,-2.17964 -0.256,-0.67292 -0.316,-1.73908 -0.144,-2.53808 0.104,-0.48276 2.0968,-6.46316 3.2652,-9.79296 0.368,-1.0442 1.0728,-1.75928 2.1808,-2.20744 l 0.4956,-0.2004 12.4796,-0.024 12.4796,-0.024 -0.336,0.95224 c -0.184,0.52372 -0.7084,2.01524 -1.1624,3.31448 l -0.8256,2.36224 -8.8412,0.024 c -10.0592,0.028 -9.342,-0.028 -10.1304,0.7828 -0.5676,0.583 -0.6932,0.89316 -0.7212,1.78364 -0.04,0.81876 0.068,1.02808 0.5512,1.248 0.156,0.0712 2.4024,0.1148 7.692,0.1492 8.2368,0.0536 7.7852,0.024 9.0116,0.62612 1.7504,0.86176 2.3948,2.70776 1.7244,4.93948 -0.284,0.94312 -3.404,9.24776 -3.712,9.87852 -0.5692,1.16484 -1.4752,1.85404 -2.6992,2.0526 -0.708,0.1148 -24.6604,0.1304 -24.6604,0.016 z m 33.1584,0.0552 c 0,-0.012 2.1632,-6.3482 4.8036,-14.08012 l 4.8008,-14.05804 3.8268,-0.024 c 3.0496,-0.02 3.8184,-4.4e-4 3.7844,0.0884 -0.208,0.54912 -7.3156,21.32472 -7.3156,21.38496 0,0.0468 3.83,0.0704 9.2988,0.0572 l 9.2984,-0.024 0.4356,-1.1052 c 0.24,-0.60784 1.7476,-4.86504 3.3508,-9.4604 1.6028,-4.5954 3.0092,-8.56356 3.1244,-8.8182 0.4116,-0.9084 1.5164,-1.72908 2.7044,-2.00916 0.83,-0.1956 21.904,-0.2036 22.9228,-0.008 2.1584,0.413 3.1104,1.89208 2.8008,4.35248 -0.06,0.46948 -0.236,1.31468 -0.392,1.8782 -0.296,1.06632 -6.5424,18.80444 -6.9036,19.60728 -0.396,0.87696 -1.2388,1.5934 -2.3436,1.98908 l -0.5748,0.206 -10.8308,0.028 c -6.984,0.016 -11.0724,-0.004 -11.5108,-0.0636 -2.1792,-0.288 -3.2352,-1.38344 -3.2832,-3.40612 0,-0.3616 -0.04,-0.62976 -0.068,-0.59612 -0.04,0.032 -0.368,0.96604 -0.7516,2.072 l -0.6992,2.01088 -13.24,6.8e-4 c -7.282,0 -13.2392,-0.008 -13.2376,-0.02 z m 49.5388,-6.785 c 0.4908,-0.1788 1.0772,-0.7338 1.3344,-1.26392 0.124,-0.2536 1.1,-2.96528 2.1712,-6.02604 2.1016,-6.0056 2.1416,-6.15864 1.7924,-6.85732 -0.324,-0.64596 -0.096,-0.62484 -6.432,-0.59836 l -5.6588,0.024 -0.462,0.2088 c -0.506,0.2288 -1.064,0.77604 -1.3336,1.3074 -0.192,0.3824 -3.972,11.20808 -4.0528,11.613 -0.144,0.71632 0.232,1.50656 0.794,1.67376 0.164,0.0492 2.5756,0.0748 5.8944,0.0628 4.5364,-0.016 5.6796,-0.0444 5.9528,-0.1436 z m 19.5108,6.47824 c -1.7236,-0.1968 -3.0468,-1.00352 -3.648,-2.22392 -0.272,-0.5496 -0.288,-0.63624 -0.288,-1.55652 0,-0.57384 0.052,-1.15632 0.124,-1.41664 0.276,-0.97988 3.5752,-10.49048 5.9776,-17.24096 1.3836,-3.88792 1.6652,-4.42836 2.656,-5.09996 0.9408,-0.63756 0.264,-0.60992 14.2852,-0.5828 l 12.5224,0.024 -1.1652,3.27136 -1.1652,3.2714 -9.1912,0.044 -9.1912,0.0444 -0.5016,0.2028 c -0.8124,0.3284 -1.1428,0.73584 -1.6588,2.04588 -1.3412,3.40556 -3.9024,10.87412 -3.9244,11.4442 0,0.46612 0.172,0.771 0.6188,0.99284 0.32,0.1588 0.6008,0.168 5.1568,0.168 4.2936,0 4.8716,-0.016 5.3048,-0.1508 0.5568,-0.1728 0.984,-0.46168 1.2844,-0.86924 0.176,-0.2364 1.0144,-2.02876 1.0144,-2.16456 0,-0.024 -1.9728,-0.0424 -4.384,-0.0424 -2.4112,0 -4.3704,-0.036 -4.3544,-0.076 0,-0.0416 0.5468,-1.53336 1.1788,-3.31472 l 1.1496,-3.2388 8.2108,-8.8e-4 c 7.8352,-8e-4 8.2088,0.008 8.1696,0.1568 -0.176,0.6662 -4.838,13.64448 -5.086,14.15308 -0.6164,1.26432 -1.466,1.91876 -2.7624,2.12856 -0.5452,0.0884 -19.58,0.1172 -20.3356,0.032 z m -3.584,-27.704 c -0.148,-0.2404 0.264,-2.89124 0.664,-4.28288 0.7076,-2.45204 1.906,-4.73816 3.568,-6.808 0.7872,-0.9804 2.5312,-2.65152 3.5868,-3.43704 5.5508,-4.13092 12.58,-5.46996 19.328,-3.68176 7.6068,2.01576 13.5124,7.97996 15.0156,15.1646 0.256,1.21656 0.448,2.96204 0.34,3.06988 -0.04,0.04 -0.786,0.062 -1.658,0.0488 l -1.5848,-0.024 -0.064,-0.772 c -0.156,-1.8782 -0.6536,-3.56752 -1.62,-5.50548 -0.8356,-1.67584 -1.5688,-2.70408 -2.9352,-4.11784 -2.8636,-2.96216 -6.71,-4.88604 -10.8552,-5.42944 -1.3056,-0.1712 -3.7212,-0.1724 -5.0108,-0.003 -6.8396,0.90024 -12.672,5.48224 -14.696,11.5448 -0.368,1.10016 -0.636,2.28372 -0.7116,3.1332 -0.04,0.3404 -0.076,0.74824 -0.1,0.90628 l -0.044,0.2872 h -1.5824 c -1.018,0 -1.6028,-0.032 -1.64,-0.0936 z"
       id="path170" />
  </g>
</svg>
